<svg width="43" height="28" viewBox="0 0 43 28" fill="none" xmlns="http://www.w3.org/2000/svg">
<g clip-path="url(#clip0_1500_670)">
<path fill-rule="evenodd" clip-rule="evenodd" d="M12.7134 26.0002V26V14.7126H6.2666V26.0002H12.7134ZM14.2134 14.7126V26H28.6786V14.7126H14.2134ZM28.6786 13.2126H14.2134V8.35669H28.6786V13.2126ZM30.1786 14.7126V26V26.0002H36.6231V14.7126H30.1786ZM30.1786 13.2126V8.35669H36.6231V13.2126H30.1786ZM30.1786 6.85669V2V0.5H28.6786H14.2134H12.7134V2V6.85669H6.2666H4.7666V8.35669V13.2126H1.5H0V14.7126V26.0148V27.5148H1.5H41.3913H42.8913V26.0148V14.7126V13.2126H41.3913H38.1231V8.35669V6.85669H36.6231H30.1786ZM28.6786 6.85669V2H14.2134V6.85669H28.6786ZM12.7134 8.35669H6.2666V13.2126H12.7134V8.35669ZM4.7666 26.0002V26.0148H1.5V14.7126H4.7666V26.0002ZM38.1231 26.0002V14.7126H41.3913V26.0148H38.1231V26.0002Z" fill="black"/>
</g>
<defs>
<clipPath id="clip0_1500_670">
<rect width="42.8913" height="27" fill="white" transform="translate(0 0.5)"/>
</clipPath>
</defs>
</svg>
