<svg width="151" height="28" viewBox="0 0 151 28" fill="none" xmlns="http://www.w3.org/2000/svg">
<g clip-path="url(#clip0_1500_675)">
<path d="M4.96129 13.1509C6.03571 11.456 8.24507 10.2908 10.515 10.2908C15.1758 10.2908 18.8681 14.1647 18.8681 19.098C18.8681 24.0312 15.1758 27.9051 10.515 27.9051C8.22993 27.9051 6.02058 26.7248 4.96129 25.0451V27.4966H0.890625V0.5H4.96129V13.1509ZM9.80372 13.8772C6.97393 13.8772 4.79483 16.1168 4.79483 19.098C4.79483 22.0791 6.97393 24.3187 9.80372 24.3187C12.6335 24.3187 14.8429 22.0791 14.8429 19.098C14.8429 16.1168 12.6638 13.8772 9.80372 13.8772Z" fill="black"/>
<path d="M42.0513 10.2757C46.8937 10.2757 50.9644 14.1042 50.9644 19.0828C50.9644 24.0615 46.8937 27.89 42.0513 27.89C37.2089 27.89 33.1684 24.0615 33.1684 19.0828C33.1684 14.1042 37.2089 10.2757 42.0513 10.2757ZM42.0513 24.3036C44.9113 24.3036 47.0904 22.0639 47.0904 19.0828C47.0904 16.1017 44.9113 13.8621 42.0513 13.8621C39.1912 13.8621 37.0424 16.1017 37.0424 19.0828C37.0424 22.0639 39.2215 24.3036 42.0513 24.3036Z" fill="black"/>
<path d="M71.5296 27.4814H67.4589V25.0299C66.4299 26.7248 64.2054 27.89 61.9355 27.89C57.2747 27.89 53.5823 24.0161 53.5823 19.0828C53.5823 14.1496 57.2747 10.2757 61.9355 10.2757C64.2205 10.2757 66.4299 11.456 67.4589 13.1357V10.6842H71.5296V27.4814ZM62.6165 24.3036C65.4765 24.3036 67.6556 22.0639 67.6556 19.0828C67.6556 16.1017 65.4765 13.8621 62.6165 13.8621C59.7564 13.8621 57.6076 16.1017 57.6076 19.0828C57.6076 22.0639 59.7867 24.3036 62.6165 24.3036Z" fill="black"/>
<path d="M92.4277 0.5V27.4814H88.357V25.0299C87.2826 26.7248 85.0732 27.89 82.7882 27.89C78.1274 27.89 74.435 24.0161 74.435 19.0828C74.435 14.1496 78.1274 10.2757 82.7882 10.2757C85.0732 10.2757 87.2826 11.456 88.357 13.1357V0.5H92.4277ZM83.5146 24.3036C86.3444 24.3036 88.5235 22.0639 88.5235 19.0828C88.5235 16.1017 86.3444 13.8621 83.5146 13.8621C80.6848 13.8621 78.4754 16.1017 78.4754 19.0828C78.4754 22.0639 80.6545 24.3036 83.5146 24.3036Z" fill="black"/>
<path d="M25.8594 14.2555V27.4814H21.7887V10.6994H31.4585V14.2555H25.8594Z" fill="black"/>
<path d="M109.089 10.6994H111.676V4.93385H115.747V10.6994H119.137V14.2555H115.747V27.4814H111.676V14.2555H109.089V10.6994Z" fill="black"/>
<path d="M134.133 21.4738L137.145 23.4107C135.525 26.3162 132.68 27.9051 129.442 27.9051C124.706 27.9051 120.741 24.0766 120.741 19.098C120.741 14.1193 124.706 10.2908 129.382 10.2908C134.36 10.2908 137.841 14.195 137.674 20.0967H124.584C124.993 22.76 127.036 24.4095 129.457 24.4095C131.878 24.4095 133.089 23.3351 134.148 21.4738H134.133ZM124.736 17.2972H133.619C133.346 15.4056 131.863 13.741 129.366 13.741C127.187 13.741 125.402 15.1181 124.736 17.2972Z" fill="black"/>
<path d="M145.392 14.2555V27.4814H141.321V10.6994H150.991V14.2555H145.392Z" fill="black"/>
<path d="M101.462 27.89C104.64 27.89 107.454 25.953 107.454 22.6239C107.454 20.3842 106.168 18.5683 103.55 17.7209L101.038 16.9189C100.176 16.6465 99.6762 16.0109 99.6762 15.2845C99.6762 14.3917 100.493 13.741 101.598 13.741C102.309 13.741 103.308 14.0437 103.701 15.4207L107.258 14.3161C106.531 11.9554 104.292 10.2757 101.734 10.2757C98.1781 10.2757 95.8325 12.6212 95.8325 15.4207C95.8325 17.6906 96.9523 19.4914 100.145 20.5204L102.264 21.2014C103.217 21.504 103.55 22.0791 103.55 22.7449C103.55 23.8799 102.612 24.4398 101.659 24.4398C100.357 24.4398 99.4038 23.8647 98.859 22.2001L95.3332 23.3048C96.1352 26.1044 98.4051 27.89 101.462 27.89Z" fill="black"/>
</g>
<defs>
<clipPath id="clip0_1500_675">
<rect width="150.1" height="27.39" fill="white" transform="translate(0.890625 0.5)"/>
</clipPath>
</defs>
</svg>
